<svg version="1.1" id="Layer_1" xmlns="http://www.w3.org/2000/svg" xmlns:xlink="http://www.w3.org/1999/xlink" x="0px" y="0px"
	 width="100%" viewBox="0 0 225 225" enable-background="new 0 0 225 225" xml:space="preserve">
<path fill="#FDFDFD" opacity="1.000000" stroke="none" 
	d="
M125.000000,226.000000 
	C83.333336,226.000000 42.166672,226.000000 1.000005,226.000000 
	C1.000004,151.000000 1.000004,76.000015 1.000002,1.000016 
	C75.999992,1.000010 150.999985,1.000010 225.999969,1.000005 
	C225.999985,75.999985 225.999985,150.999969 226.000000,225.999969 
	C192.500000,226.000000 159.000000,226.000000 125.000000,226.000000 
M91.072632,73.271057 
	C90.561478,72.509850 90.050331,71.748642 89.288795,70.455109 
	C89.053589,70.145088 88.818382,69.835060 88.238083,68.850021 
	C87.624146,67.991341 87.010201,67.132668 86.115845,65.881783 
	C77.455246,77.957382 69.075180,89.500191 60.916508,101.197411 
	C59.900356,102.654274 59.728607,104.928215 59.721359,106.825684 
	C59.641182,127.800964 59.666061,148.776657 59.681667,169.752228 
	C59.682728,171.179291 59.837536,172.606247 59.923485,174.078568 
	C70.224854,174.078568 80.162384,174.078568 90.701920,174.078568 
	C90.701920,159.031998 90.701920,144.173401 90.701920,129.072754 
	C97.774811,129.072754 104.255714,129.267975 110.716286,128.990219 
	C113.934792,128.851837 115.817764,129.875488 117.577950,132.569641 
	C126.024208,145.497528 134.659454,158.302536 143.312943,171.093445 
	C144.162170,172.348724 145.575729,174.093445 146.757477,174.117264 
	C158.116486,174.346283 169.481964,174.254395 181.863632,174.254395 
	C161.815826,145.195709 142.415817,117.075989 122.945045,88.256577 
	C121.158325,85.448334 119.371605,82.640099 117.584885,79.831856 
	C117.048752,80.114983 116.512627,80.398117 115.976494,80.681244 
	C116.552422,82.177780 117.316422,83.633514 117.652382,85.182106 
	C118.001724,86.792442 117.937431,88.492500 118.161652,90.589699 
	C118.161652,90.589699 117.986153,91.003464 117.477890,91.002441 
	C117.308502,91.005608 117.139114,91.008766 116.311005,90.619614 
	C115.024406,90.074394 113.698914,89.006828 112.459793,89.099106 
	C110.277557,89.261650 108.148064,90.132538 105.887985,90.365143 
	C105.748566,90.147812 105.550285,90.027290 105.328079,89.276215 
	C106.728813,85.470520 107.996284,81.605133 109.650215,77.912857 
	C109.956451,77.229202 111.821983,77.244034 113.036110,77.642357 
	C113.754272,77.971138 114.472435,78.299919 115.190605,78.628700 
	C115.336807,78.244232 115.483009,77.859764 115.629211,77.475296 
	C114.733383,77.306961 113.837555,77.138626 113.022911,76.226967 
	C112.576340,74.842857 112.129768,73.458755 111.424385,71.272461 
	C107.425354,76.795662 104.046310,81.462563 100.475044,86.394958 
	C98.842285,84.081482 97.414108,82.057861 95.916679,79.346252 
	C94.942795,78.565788 93.968910,77.785332 93.019218,76.296539 
	C92.381004,75.496078 91.742790,74.695618 91.072632,73.271057 
M59.966877,60.499996 
	C59.966877,71.228539 59.966877,81.957077 59.966877,93.940468 
	C61.288067,92.127480 61.833412,91.389839 62.367741,90.644318 
	C70.794624,78.886803 79.144821,67.072716 87.733902,55.434925 
	C88.907852,53.844280 91.241699,52.223793 93.088730,52.163822 
	C102.907448,51.845001 112.772697,51.563351 122.558266,52.218445 
	C127.331337,52.537987 132.446686,54.115627 136.551956,56.560005 
	C142.852753,60.311665 144.606522,66.946487 143.739288,74.004326 
	C142.743866,82.105553 137.785095,87.041267 129.741211,89.566505 
	C135.400558,97.623940 140.913269,105.472580 146.356125,113.221771 
	C155.956802,110.421745 164.232880,103.757858 169.006912,95.169449 
	C186.174484,64.285309 166.934692,27.824694 131.823532,26.076675 
	C108.228577,24.901995 84.542534,25.555000 60.897079,25.419851 
	C60.651314,25.418447 60.403255,25.817139 59.966877,26.191544 
	C59.966877,37.187935 59.966877,48.343964 59.966877,60.499996 
M86.654793,184.020920 
	C86.505653,185.071640 86.356514,186.122360 86.186203,187.322250 
	C84.222565,185.590088 82.551819,184.116287 79.879227,181.758743 
	C80.108498,186.365234 80.257835,189.365707 80.407166,192.366196 
	C80.885475,192.358978 81.363792,192.351761 81.842102,192.344559 
	C82.057205,190.782761 82.272308,189.220978 82.702744,186.095749 
	C84.723297,189.251999 85.970100,191.199585 87.216896,193.147171 
	C87.724663,192.764664 88.232430,192.382156 88.740196,191.999634 
	C88.740196,190.046600 88.936401,188.065338 88.661186,186.151871 
	C88.513489,185.124939 87.555580,184.214539 86.654793,184.020920 
M63.940685,185.703156 
	C62.271191,181.573654 59.032269,183.237839 56.534004,183.174164 
	C56.534004,186.520279 56.534004,189.416855 56.534004,192.313431 
	C56.811264,192.347290 57.088528,192.381149 57.365788,192.415024 
	C57.867035,191.401474 58.368282,190.387939 58.940536,189.230835 
	C60.238239,190.315323 61.272366,191.179535 62.188976,191.945541 
	C62.839661,189.937149 63.388664,188.242584 63.940685,185.703156 
M70.968849,186.334808 
	C72.532967,185.551437 74.097092,184.768051 76.958069,183.335144 
	C73.296944,183.335144 71.041626,183.335144 68.917831,183.335144 
	C68.917831,186.480820 68.917831,189.359970 68.917831,191.932007 
	C71.460213,191.932007 73.621544,191.932007 75.782875,191.932007 
	C75.787392,191.689423 75.791908,191.446838 75.796417,191.204254 
	C74.130371,190.832855 72.464317,190.461441 69.543671,189.810349 
	C72.368317,188.860199 73.747444,188.396286 75.126579,187.932373 
	C75.081398,187.674850 75.036217,187.417328 74.991035,187.159805 
	C73.896622,187.030014 72.802200,186.900208 70.968849,186.334808 
M181.774384,192.364548 
	C181.848511,191.829071 181.922638,191.293579 181.996765,190.758087 
	C180.665665,190.634674 179.334579,190.511261 178.003479,190.387848 
	C177.979111,190.067551 177.954742,189.747253 177.930374,189.426956 
	C179.348114,188.889297 180.765839,188.351624 182.743042,187.601776 
	C180.633240,186.957703 179.260040,186.538483 177.886841,186.119278 
	C177.938004,185.859802 177.989151,185.600327 178.040314,185.340851 
	C179.713745,185.021271 181.387177,184.701675 183.060623,184.382095 
	C183.005157,184.025925 182.949677,183.669769 182.894211,183.313599 
	C180.615509,183.313599 178.336807,183.313599 176.202637,183.313599 
	C176.202637,186.434265 176.202637,189.304718 176.202637,192.379074 
	C178.019470,192.379074 179.491364,192.379074 181.774384,192.364548 
M96.227257,190.374969 
	C98.174904,190.875824 100.122543,191.376678 102.564438,192.004639 
	C101.144600,188.726593 99.843796,185.723343 98.542992,182.720108 
	C98.051208,182.684616 97.559425,182.649124 97.067642,182.613632 
	C95.725288,185.706787 94.382935,188.799942 93.040588,191.893097 
	C93.432045,192.104584 93.823502,192.316055 94.214958,192.527527 
	C94.712791,191.957733 95.210625,191.387939 96.227257,190.374969 
M137.311615,192.265488 
	C139.658615,188.456726 142.244324,190.690125 145.913742,193.242874 
	C144.032623,188.764053 142.775620,185.771194 141.518600,182.778320 
	C140.910324,182.696869 140.302048,182.615402 139.693771,182.533951 
	C138.668900,185.790054 137.644028,189.046158 137.311615,192.265488 
M170.859985,184.151627 
	C167.889191,181.820572 164.896652,182.336716 163.560898,185.511475 
	C162.877243,187.136353 163.955002,190.287628 165.320053,191.707581 
	C166.200928,192.623917 169.046600,191.651459 171.011734,191.525467 
	C170.887466,191.004669 170.763184,190.483871 170.638916,189.963074 
	C170.026672,190.110886 169.262726,190.564194 168.830490,190.349533 
	C167.503296,189.690399 166.303207,188.775345 165.053711,187.959778 
	C166.209503,186.976379 167.289337,185.874268 168.555725,185.063660 
	C169.120758,184.701981 170.061005,184.926453 170.859985,184.151627 
M114.476006,191.805573 
	C116.559608,191.475708 118.643211,191.145844 120.726814,190.815979 
	C118.935539,188.421295 117.144264,186.026611 115.056847,183.236008 
	C112.171646,188.529526 117.601974,187.882996 118.771530,190.077133 
	C117.061043,190.457489 115.585876,190.785507 114.476006,191.805573 
M125.050842,185.539948 
	C126.322533,187.147507 127.594223,188.755081 129.270203,190.873718 
	C127.603485,190.573746 126.415802,190.359985 125.228127,190.146240 
	C125.153259,190.664795 125.078392,191.183350 125.003532,191.701904 
	C126.839523,191.834595 128.711365,192.219543 130.492508,191.966324 
	C131.136307,191.874786 132.119232,189.525070 132.005859,189.438492 
	C129.837189,187.782043 127.527977,186.309586 125.050842,185.539948 
M150.160248,183.256790 
	C150.160248,186.268204 150.160248,189.279617 150.160248,192.291046 
	C150.615768,192.292664 151.071289,192.294296 151.526810,192.295929 
	C151.752609,190.749527 151.978394,189.203125 152.204193,187.656708 
	C152.454010,187.411118 152.703827,187.165512 152.953644,186.919907 
	C153.383347,188.051575 153.813049,189.183243 154.242752,190.314896 
	C154.771042,189.847244 155.299332,189.379578 155.827606,188.911926 
	C154.204086,186.940826 152.580551,184.969711 150.160248,183.256790 
M161.207108,202.459854 
	C165.999039,201.381943 166.786118,199.953140 164.645264,197.114609 
	C163.324524,198.769211 162.000153,200.428360 161.207108,202.459854 
M159.426941,197.215317 
	C160.574707,197.023788 161.722473,196.832260 162.870239,196.640732 
	C162.705032,196.147217 162.539825,195.653687 162.374619,195.160172 
	C161.402634,195.640930 160.430664,196.121689 159.426941,197.215317 
M173.408112,196.133392 
	C173.058228,196.291489 172.708359,196.449600 172.358475,196.607712 
	C172.692062,196.937592 173.025650,197.267471 173.359238,197.597351 
	C173.523514,197.252579 173.687790,196.907806 173.408112,196.133392 
z"/>
<path fill="#020202" opacity="1.000000" stroke="none" 
	d="
M117.986160,91.003464 
	C117.986153,91.003464 118.161652,90.589699 118.445724,90.299515 
	C120.055374,90.947601 121.380943,91.885880 123.284225,93.233070 
	C121.471443,89.794678 121.471443,89.794678 123.015823,88.956268 
	C142.415817,117.075989 161.815826,145.195709 181.863632,174.254395 
	C169.481964,174.254395 158.116486,174.346283 146.757477,174.117264 
	C145.575729,174.093445 144.162170,172.348724 143.312943,171.093445 
	C134.659454,158.302536 126.024208,145.497528 117.577950,132.569641 
	C115.817764,129.875488 113.934792,128.851837 110.716286,128.990219 
	C104.255714,129.267975 97.774811,129.072754 90.701920,129.072754 
	C90.701920,144.173401 90.701920,159.031998 90.701920,174.078568 
	C80.162384,174.078568 70.224854,174.078568 59.923485,174.078568 
	C59.837536,172.606247 59.682728,171.179291 59.681667,169.752228 
	C59.666061,148.776657 59.641182,127.800964 59.721359,106.825684 
	C59.728607,104.928215 59.900356,102.654274 60.916508,101.197411 
	C69.075180,89.500191 77.455246,77.957382 86.115845,65.881783 
	C87.010201,67.132668 87.624146,67.991341 88.195503,69.359451 
	C88.015541,69.990128 87.878151,70.111389 87.446503,70.100136 
	C87.045647,69.841927 86.960335,69.677979 86.825523,69.602989 
	C86.722702,69.545792 86.445984,69.571365 86.435272,69.611046 
	C85.295647,73.832985 84.173897,78.059746 83.051094,82.286232 
	C83.530502,82.472008 84.009903,82.657791 84.489311,82.843567 
	C85.599510,81.255867 86.709709,79.668167 87.786156,78.128738 
	C89.626213,78.728256 91.303574,79.274757 93.349838,79.903458 
	C94.474472,80.001839 95.230202,80.018044 95.985924,80.034248 
	C97.414108,82.057861 98.842285,84.081482 100.475044,86.394958 
	C104.046310,81.462563 107.425354,76.795662 111.424385,71.272461 
	C112.129768,73.458755 112.576340,74.842857 113.013153,76.608986 
	C113.003395,76.991005 112.967842,76.936493 112.967842,76.936493 
	C111.821983,77.244034 109.956451,77.229202 109.650215,77.912857 
	C107.996284,81.605133 106.728813,85.470520 105.206512,89.899002 
	C105.388802,90.583466 105.692642,90.645149 105.996490,90.706833 
	C108.148064,90.132538 110.277557,89.261650 112.459793,89.099106 
	C113.698914,89.006828 115.024406,90.074394 116.650703,91.024239 
	C117.288284,91.653877 117.586166,91.878883 117.884048,92.103897 
	C117.918091,91.737083 117.952126,91.370277 117.986160,91.003464 
M84.466850,83.274704 
	C83.503265,84.297287 82.539680,85.319878 81.576096,86.342461 
	C81.909264,86.598305 82.242439,86.854149 82.575615,87.110001 
	C83.130814,86.083237 83.686012,85.056473 84.466850,83.274704 
z"/>
<path fill="#020202" opacity="1.000000" stroke="none" 
	d="
M59.966877,59.999992 
	C59.966877,48.343964 59.966877,37.187935 59.966877,26.191544 
	C60.403255,25.817139 60.651314,25.418447 60.897079,25.419851 
	C84.542534,25.555000 108.228577,24.901995 131.823532,26.076675 
	C166.934692,27.824694 186.174484,64.285309 169.006912,95.169449 
	C164.232880,103.757858 155.956802,110.421745 146.356125,113.221771 
	C140.913269,105.472580 135.400558,97.623940 129.741211,89.566505 
	C137.785095,87.041267 142.743866,82.105553 143.739288,74.004326 
	C144.606522,66.946487 142.852753,60.311665 136.551956,56.560005 
	C132.446686,54.115627 127.331337,52.537987 122.558266,52.218445 
	C112.772697,51.563351 102.907448,51.845001 93.088730,52.163822 
	C91.241699,52.223793 88.907852,53.844280 87.733902,55.434925 
	C79.144821,67.072716 70.794624,78.886803 62.367741,90.644318 
	C61.833412,91.389839 61.288067,92.127480 59.966877,93.940468 
	C59.966877,81.957077 59.966877,71.228539 59.966877,59.999992 
z"/>
<path fill="#2A2A2A" opacity="1.000000" stroke="none" 
	d="
M86.809036,183.636230 
	C87.555580,184.214539 88.513489,185.124939 88.661186,186.151871 
	C88.936401,188.065338 88.740196,190.046600 88.740196,191.999634 
	C88.232430,192.382156 87.724663,192.764664 87.216896,193.147171 
	C85.970100,191.199585 84.723297,189.251999 82.702744,186.095749 
	C82.272308,189.220978 82.057205,190.782761 81.842102,192.344559 
	C81.363792,192.351761 80.885475,192.358978 80.407166,192.366196 
	C80.257835,189.365707 80.108498,186.365234 79.879227,181.758743 
	C82.551819,184.116287 84.222565,185.590088 86.186203,187.322250 
	C86.356514,186.122360 86.505653,185.071640 86.809036,183.636230 
z"/>
<path fill="#121212" opacity="1.000000" stroke="none" 
	d="
M63.939178,186.125580 
	C63.388664,188.242584 62.839661,189.937149 62.188976,191.945541 
	C61.272366,191.179535 60.238239,190.315323 58.940536,189.230835 
	C58.368282,190.387939 57.867035,191.401474 57.365788,192.415024 
	C57.088528,192.381149 56.811264,192.347290 56.534004,192.313431 
	C56.534004,189.416855 56.534004,186.520279 56.534004,183.174164 
	C59.032269,183.237839 62.271191,181.573654 63.939178,186.125580 
z"/>
<path fill="#252525" opacity="1.000000" stroke="none" 
	d="
M71.338318,186.552612 
	C72.802200,186.900208 73.896622,187.030014 74.991035,187.159805 
	C75.036217,187.417328 75.081398,187.674850 75.126579,187.932373 
	C73.747444,188.396286 72.368317,188.860199 69.543671,189.810349 
	C72.464317,190.461441 74.130371,190.832855 75.796417,191.204254 
	C75.791908,191.446838 75.787392,191.689423 75.782875,191.932007 
	C73.621544,191.932007 71.460213,191.932007 68.917831,191.932007 
	C68.917831,189.359970 68.917831,186.480820 68.917831,183.335144 
	C71.041626,183.335144 73.296944,183.335144 76.958069,183.335144 
	C74.097092,184.768051 72.532967,185.551437 71.338318,186.552612 
z"/>
<path fill="#171717" opacity="1.000000" stroke="none" 
	d="
M181.368820,192.371811 
	C179.491364,192.379074 178.019470,192.379074 176.202637,192.379074 
	C176.202637,189.304718 176.202637,186.434265 176.202637,183.313599 
	C178.336807,183.313599 180.615509,183.313599 182.894211,183.313599 
	C182.949677,183.669769 183.005157,184.025925 183.060623,184.382095 
	C181.387177,184.701675 179.713745,185.021271 178.040314,185.340851 
	C177.989151,185.600327 177.938004,185.859802 177.886841,186.119278 
	C179.260040,186.538483 180.633240,186.957703 182.743042,187.601776 
	C180.765839,188.351624 179.348114,188.889297 177.930374,189.426956 
	C177.954742,189.747253 177.979111,190.067551 178.003479,190.387848 
	C179.334579,190.511261 180.665665,190.634674 181.996765,190.758087 
	C181.922638,191.293579 181.848511,191.829071 181.368820,192.371811 
z"/>
<path fill="#151515" opacity="1.000000" stroke="none" 
	d="
M95.967865,190.596558 
	C95.210625,191.387939 94.712791,191.957733 94.214958,192.527527 
	C93.823502,192.316055 93.432045,192.104584 93.040588,191.893097 
	C94.382935,188.799942 95.725288,185.706787 97.067642,182.613632 
	C97.559425,182.649124 98.051208,182.684616 98.542992,182.720108 
	C99.843796,185.723343 101.144600,188.726593 102.564438,192.004639 
	C100.122543,191.376678 98.174904,190.875824 95.967865,190.596558 
z"/>
<path fill="#141414" opacity="1.000000" stroke="none" 
	d="
M136.965378,192.283875 
	C137.644028,189.046158 138.668900,185.790054 139.693771,182.533951 
	C140.302048,182.615402 140.910324,182.696869 141.518600,182.778320 
	C142.775620,185.771194 144.032623,188.764053 145.913742,193.242874 
	C142.244324,190.690125 139.658615,188.456726 136.965378,192.283875 
z"/>
<path fill="#151515" opacity="1.000000" stroke="none" 
	d="
M170.845459,184.518250 
	C170.061005,184.926453 169.120758,184.701981 168.555725,185.063660 
	C167.289337,185.874268 166.209503,186.976379 165.053711,187.959778 
	C166.303207,188.775345 167.503296,189.690399 168.830490,190.349533 
	C169.262726,190.564194 170.026672,190.110886 170.638916,189.963074 
	C170.763184,190.483871 170.887466,191.004669 171.011734,191.525467 
	C169.046600,191.651459 166.200928,192.623917 165.320053,191.707581 
	C163.955002,190.287628 162.877243,187.136353 163.560898,185.511475 
	C164.896652,182.336716 167.889191,181.820572 170.845459,184.518250 
z"/>
<path fill="#1C1C1C" opacity="1.000000" stroke="none" 
	d="
M114.293358,191.459564 
	C115.585876,190.785507 117.061043,190.457489 118.771530,190.077133 
	C117.601974,187.882996 112.171646,188.529526 115.056847,183.236008 
	C117.144264,186.026611 118.935539,188.421295 120.726814,190.815979 
	C118.643211,191.145844 116.559608,191.475708 114.293358,191.459564 
z"/>
<path fill="#EEEEEE" opacity="1.000000" stroke="none" 
	d="
M122.980438,88.606422 
	C121.471443,89.794678 121.471443,89.794678 123.284225,93.233070 
	C121.380943,91.885880 120.055374,90.947601 118.391907,90.081329 
	C117.937431,88.492500 118.001724,86.792442 117.652382,85.182106 
	C117.316422,83.633514 116.552422,82.177780 115.976494,80.681244 
	C116.512627,80.398117 117.048752,80.114983 117.584885,79.831856 
	C119.371605,82.640099 121.158325,85.448334 122.980438,88.606422 
z"/>
<path fill="#171717" opacity="1.000000" stroke="none" 
	d="
M125.149345,185.169495 
	C127.527977,186.309586 129.837189,187.782043 132.005859,189.438492 
	C132.119232,189.525070 131.136307,191.874786 130.492508,191.966324 
	C128.711365,192.219543 126.839523,191.834595 125.003532,191.701904 
	C125.078392,191.183350 125.153259,190.664795 125.228127,190.146240 
	C126.415802,190.359985 127.603485,190.573746 129.270203,190.873718 
	C127.594223,188.755081 126.322533,187.147507 125.149345,185.169495 
z"/>
<path fill="#151515" opacity="1.000000" stroke="none" 
	d="
M150.558640,183.127701 
	C152.580551,184.969711 154.204086,186.940826 155.827606,188.911926 
	C155.299332,189.379578 154.771042,189.847244 154.242752,190.314896 
	C153.813049,189.183243 153.383347,188.051575 152.953644,186.919907 
	C152.703827,187.165512 152.454010,187.411118 152.204193,187.656708 
	C151.978394,189.203125 151.752609,190.749527 151.526810,192.295929 
	C151.071289,192.294296 150.615768,192.292664 150.160248,192.291046 
	C150.160248,189.279617 150.160248,186.268204 150.558640,183.127701 
z"/>
<path fill="#DEDEDE" opacity="1.000000" stroke="none" 
	d="
M160.941437,202.273682 
	C162.000153,200.428360 163.324524,198.769211 164.645264,197.114609 
	C166.786118,199.953140 165.999039,201.381943 160.941437,202.273682 
z"/>
<path fill="#E7E7E7" opacity="1.000000" stroke="none" 
	d="
M95.951302,79.690247 
	C95.230202,80.018044 94.474472,80.001839 93.354935,79.550232 
	C92.995674,78.408310 93.000244,77.701797 93.002548,76.997505 
	C93.000290,76.999733 92.995026,77.004868 92.995026,77.004868 
	C93.968910,77.785332 94.942795,78.565788 95.951302,79.690247 
z"/>
<path fill="#DEDEDE" opacity="1.000000" stroke="none" 
	d="
M159.442810,196.908875 
	C160.430664,196.121689 161.402634,195.640930 162.374619,195.160172 
	C162.539825,195.653687 162.705032,196.147217 162.870239,196.640732 
	C161.722473,196.832260 160.574707,197.023788 159.442810,196.908875 
z"/>
<path fill="#EEEEEE" opacity="1.000000" stroke="none" 
	d="
M112.972565,76.980652 
	C113.837555,77.138626 114.733383,77.306961 115.629211,77.475296 
	C115.483009,77.859764 115.336807,78.244232 115.190605,78.628700 
	C114.472435,78.299919 113.754272,77.971138 113.001976,77.289429 
	C112.967842,76.936493 113.003395,76.991005 112.972565,76.980652 
z"/>
<path fill="#E7E7E7" opacity="1.000000" stroke="none" 
	d="
M89.539177,70.987434 
	C90.050331,71.748642 90.561478,72.509850 91.037155,73.634392 
	C91.001671,73.997726 90.898468,74.099998 90.583435,74.049301 
	C89.850655,73.352814 89.432922,72.707031 89.134178,71.786942 
	C89.348511,71.337563 89.443848,71.162498 89.539177,70.987434 
z"/>
<path fill="#E7E7E7" opacity="1.000000" stroke="none" 
	d="
M91.053116,73.946442 
	C91.742790,74.695618 92.381004,75.496078 93.007126,76.650703 
	C92.995026,77.004868 93.000290,76.999733 92.654068,76.969383 
	C91.838043,75.992691 91.368256,75.046341 90.898468,74.099998 
	C90.898468,74.099998 91.001671,73.997726 91.053116,73.946442 
z"/>
<path fill="#EEEEEE" opacity="1.000000" stroke="none" 
	d="
M117.732025,91.002953 
	C117.952126,91.370277 117.918091,91.737083 117.884048,92.103897 
	C117.586166,91.878883 117.288284,91.653877 116.980064,91.220398 
	C117.139114,91.008766 117.308502,91.005608 117.732025,91.002953 
z"/>
<path fill="#767676" opacity="1.000000" stroke="none" 
	d="
M173.630096,196.348206 
	C173.687790,196.907806 173.523514,197.252579 173.359238,197.597351 
	C173.025650,197.267471 172.692062,196.937592 172.358475,196.607712 
	C172.708359,196.449600 173.058228,196.291489 173.630096,196.348206 
z"/>
<path fill="#020202" opacity="1.000000" stroke="none" 
	d="
M89.413986,70.721268 
	C89.443848,71.162498 89.348511,71.337563 88.824722,71.731720 
	C88.177765,71.378090 87.959259,70.805374 87.740761,70.232651 
	C87.878151,70.111389 88.015541,69.990128 88.368042,69.696953 
	C88.818382,69.835060 89.053589,70.145088 89.413986,70.721268 
z"/>
<path fill="#EEEEEE" opacity="1.000000" stroke="none" 
	d="
M105.942238,90.535988 
	C105.692642,90.645149 105.388802,90.583466 105.189049,90.262688 
	C105.550285,90.027290 105.748566,90.147812 105.942238,90.535988 
z"/>
<path fill="#FDFDFD" opacity="1.000000" stroke="none" 
	d="
M87.446503,70.100136 
	C87.959259,70.805374 88.177765,71.378090 88.705727,72.006027 
	C89.432922,72.707031 89.850655,73.352814 90.583435,74.049301 
	C91.368256,75.046341 91.838043,75.992691 92.656326,76.967155 
	C93.000244,77.701797 92.995674,78.408310 92.986023,79.468048 
	C91.303574,79.274757 89.626213,78.728256 87.786156,78.128738 
	C86.709709,79.668167 85.599510,81.255867 84.489311,82.843567 
	C84.009903,82.657791 83.530502,82.472008 83.051094,82.286232 
	C84.173897,78.059746 85.295647,73.832985 86.435272,69.611046 
	C86.445984,69.571365 86.722702,69.545792 86.825523,69.602989 
	C86.960335,69.677979 87.045647,69.841927 87.446503,70.100136 
z"/>
<path fill="#E7E7E7" opacity="1.000000" stroke="none" 
	d="
M84.354034,83.652206 
	C83.686012,85.056473 83.130814,86.083237 82.575615,87.110001 
	C82.242439,86.854149 81.909264,86.598305 81.576096,86.342461 
	C82.539680,85.319878 83.503265,84.297287 84.354034,83.652206 
z"/>
</svg>