<svg version="1.1" id="Layer_1" xmlns="http://www.w3.org/2000/svg" xmlns:xlink="http://www.w3.org/1999/xlink" x="0px" y="0px"
	 width="100%" viewBox="0 0 175 168" enable-background="new 0 0 175 168" xml:space="preserve">
<path fill="#000000" opacity="1.000000" stroke="none" 
	d="
M1.000000,56.000000 
	C1.000000,37.333336 1.000000,19.166676 1.000000,1.000010 
	C59.333313,1.000006 117.666626,1.000006 175.999954,1.000003 
	C175.999969,56.999969 175.999969,112.999939 175.999985,168.999939 
	C117.666710,168.999954 59.333424,168.999954 1.000068,168.999969 
	C1.000000,131.500000 1.000000,94.000000 1.000000,56.000000 
M16.986248,85.789543 
	C17.009386,97.552864 17.032522,109.316193 17.005428,121.460876 
	C17.005428,121.460876 17.057014,121.842049 16.985714,122.796829 
	C17.020161,134.577362 17.054605,146.357895 17.758451,158.577484 
	C29.200403,158.618988 40.642353,158.660492 52.802200,158.811951 
	C53.525932,158.841690 54.249668,158.871429 55.912971,158.944397 
	C66.970467,158.864136 78.027954,158.783859 89.803131,158.812805 
	C90.526558,158.842255 91.249992,158.871704 92.912994,158.944397 
	C103.970482,158.864120 115.027962,158.783844 126.803116,158.812805 
	C127.526527,158.842255 128.249939,158.871719 129.912781,158.944824 
	C140.970566,158.864197 152.028336,158.783554 163.772903,158.427597 
	C164.174332,156.898407 164.911102,155.371887 164.923203,153.839615 
	C165.007080,143.225494 164.940186,132.610199 164.948425,121.059448 
	C164.942581,109.377083 164.936737,97.694725 164.991638,85.075287 
	C164.968323,72.715347 164.945007,60.355400 164.947662,47.059448 
	C164.959549,40.957397 165.073929,34.853333 164.953934,28.753878 
	C164.838181,22.869911 164.480545,16.990704 163.249146,11.017756 
	C151.817474,11.057201 140.385818,11.096645 128.286606,11.038333 
	C127.840477,11.094727 127.394356,11.151120 126.030205,11.033974 
	C114.671516,11.068013 103.312820,11.102053 91.286606,11.038334 
	C90.840477,11.094728 90.394356,11.151120 89.030205,11.033974 
	C77.671516,11.068013 66.312828,11.102053 54.286610,11.038333 
	C53.840481,11.094726 53.394352,11.151119 52.029846,11.033944 
	C40.671314,11.068071 29.312778,11.102200 17.213402,11.547480 
	C17.161032,23.391989 17.108662,35.236500 17.006950,47.457355 
	C17.006950,47.457355 17.060175,47.833172 16.986448,48.800175 
	C17.009678,60.560307 17.032909,72.320442 17.004978,84.456421 
	C17.004978,84.456421 17.060051,84.833908 16.986248,85.789543 
z"/>
<path fill="#015C01" opacity="1.000000" stroke="none" 
	d="
M128.973358,158.901169 
	C128.249939,158.871719 127.526527,158.842255 126.323105,158.474777 
	C124.561783,156.490631 123.280479,154.844513 122.011230,152.711624 
	C122.012680,144.088959 122.002068,135.953079 122.217827,127.602448 
	C123.950928,125.887787 125.457657,124.387856 127.270966,123.190353 
	C127.714668,133.173706 127.803024,142.855774 128.031021,152.534561 
	C128.075394,154.418289 128.663147,156.289215 128.995819,158.349915 
	C128.991379,158.533768 128.973358,158.901169 128.973358,158.901169 
z"/>
<path fill="#015C01" opacity="1.000000" stroke="none" 
	d="
M91.973419,158.901154 
	C91.249992,158.871704 90.526558,158.842255 89.323112,158.474777 
	C87.561790,156.490631 86.280479,154.844513 85.011230,152.711624 
	C85.012680,144.088959 85.002068,135.953079 85.217819,127.602448 
	C86.950920,125.887779 88.457649,124.387848 90.270966,123.190353 
	C90.714676,133.173706 90.803017,142.855789 91.031021,152.534576 
	C91.075401,154.418304 91.663124,156.289246 91.995819,158.349930 
	C91.991394,158.533783 91.973419,158.901154 91.973419,158.901154 
z"/>
<path fill="#015C01" opacity="1.000000" stroke="none" 
	d="
M54.973400,158.901154 
	C54.249668,158.871429 53.525932,158.841690 52.322220,158.473572 
	C50.561317,156.488724 49.280388,154.842224 48.011475,152.709198 
	C48.012814,144.087509 48.002144,135.952347 48.217892,127.602402 
	C49.951778,125.886971 51.459244,124.386307 53.272591,123.188866 
	C53.715282,133.173218 53.803310,142.855499 54.031025,152.534485 
	C54.075340,154.418243 54.663139,156.289200 54.995823,158.349915 
	C54.991394,158.533768 54.973400,158.901154 54.973400,158.901154 
z"/>
<path fill="#015D01" opacity="1.000000" stroke="none" 
	d="
M164.921677,121.995277 
	C164.940186,132.610199 165.007080,143.225494 164.923203,153.839615 
	C164.911102,155.371887 164.174332,156.898407 163.308304,158.281830 
	C161.562134,156.489853 160.280563,154.843674 159.010956,152.709442 
	C159.011154,144.086746 158.999359,135.952103 159.219421,127.599579 
	C160.972916,125.591316 162.494583,123.800941 164.242615,122.006668 
	C164.468964,122.002769 164.921677,121.995277 164.921677,121.995277 
z"/>
<path fill="#025D02" opacity="1.000000" stroke="none" 
	d="
M164.921707,47.995457 
	C164.945007,60.355400 164.968323,72.715347 164.778519,85.551743 
	C164.565399,86.028206 164.199783,86.044189 164.202972,85.767105 
	C164.137589,85.318481 164.069016,85.146942 163.820053,84.707481 
	C162.109940,82.686081 160.580200,80.932594 159.053848,78.699234 
	C159.033844,70.084976 159.010452,61.950588 159.218781,53.598297 
	C160.971725,51.590771 162.492950,49.801147 164.241074,48.007435 
	C164.467957,48.003345 164.921707,47.995457 164.921707,47.995457 
z"/>
<path fill="#015D01" opacity="1.000000" stroke="none" 
	d="
M164.934692,47.527451 
	C164.921707,47.995457 164.467957,48.003345 164.222931,48.001785 
	C163.977905,48.000221 164.001465,47.974979 163.821014,47.707355 
	C162.110733,45.686649 160.580933,43.933567 159.054596,41.700527 
	C159.028992,33.087296 158.999908,24.954020 159.205811,16.603325 
	C161.036942,14.627073 162.633057,12.868240 164.229156,11.109406 
	C164.480545,16.990704 164.838181,22.869911 164.953934,28.753878 
	C165.073929,34.853333 164.959549,40.957397 164.934692,47.527451 
z"/>
<path fill="#015C01" opacity="1.000000" stroke="none" 
	d="
M164.199783,86.044189 
	C164.199783,86.044189 164.565399,86.028206 164.748154,86.020279 
	C164.936737,97.694725 164.942581,109.377083 164.935059,121.527359 
	C164.921677,121.995277 164.468964,122.002769 164.223877,122.001862 
	C163.978775,122.000946 164.001709,121.974205 163.820984,121.706802 
	C162.110764,119.686890 160.581253,117.934380 159.055313,115.701828 
	C159.029709,107.088531 159.000519,98.955276 159.204971,90.605576 
	C161.025665,88.940811 162.612717,87.492500 164.199783,86.044189 
z"/>
<path fill="#48A448" opacity="1.000000" stroke="none" 
	d="
M52.948223,11.207512 
	C53.394352,11.151119 53.840481,11.094726 54.775040,11.367722 
	C56.842785,13.377203 58.422104,15.057296 59.926842,17.218498 
	C59.843102,25.818506 59.833946,33.937405 59.605648,42.272160 
	C57.925091,44.046917 56.463676,45.605820 54.701462,46.852692 
	C54.262623,36.860706 54.173462,27.179600 53.944298,17.501810 
	C53.899780,15.621600 53.309902,13.754305 52.948807,11.713255 
	C52.926033,11.545457 52.948223,11.207512 52.948223,11.207512 
z"/>
<path fill="#48A448" opacity="1.000000" stroke="none" 
	d="
M89.948227,11.207514 
	C90.394356,11.151120 90.840477,11.094728 91.775040,11.367722 
	C93.842773,13.377207 95.422081,15.057305 96.926819,17.218513 
	C96.843086,25.818516 96.833939,33.937405 96.605682,42.272118 
	C94.926109,44.046024 93.465637,45.604115 91.703499,46.851086 
	C91.263397,36.860226 91.173828,27.179323 90.944313,17.501743 
	C90.899719,15.621547 90.309906,13.754279 89.948807,11.713251 
	C89.926033,11.545456 89.948227,11.207514 89.948227,11.207514 
z"/>
<path fill="#48A448" opacity="1.000000" stroke="none" 
	d="
M126.948227,11.207514 
	C127.394356,11.151120 127.840477,11.094727 128.775040,11.367722 
	C130.842789,13.377204 132.422104,15.057296 133.926849,17.218498 
	C133.843246,25.818201 133.834244,33.936794 133.604980,42.272781 
	C131.929153,44.043919 130.473618,45.597664 128.712967,46.843357 
	C128.267456,36.885086 128.176590,27.233683 127.944511,17.585674 
	C127.898621,15.677435 127.309952,13.782251 126.948807,11.713251 
	C126.926033,11.545456 126.948227,11.207514 126.948227,11.207514 
z"/>
<path fill="#48A448" opacity="1.000000" stroke="none" 
	d="
M17.089052,158.138428 
	C17.054605,146.357895 17.020161,134.577362 17.275589,122.322952 
	C17.721029,121.917297 17.876596,121.985519 18.159229,122.347862 
	C19.846966,124.345230 21.407633,126.048477 22.901335,128.232285 
	C22.834055,136.816330 22.833738,144.919800 22.610497,153.249176 
	C20.621397,155.029526 18.855225,156.583969 17.089052,158.138428 
z"/>
<path fill="#48A448" opacity="1.000000" stroke="none" 
	d="
M17.056292,47.081009 
	C17.108662,35.236500 17.161032,23.391989 17.738747,11.622231 
	C19.843533,13.376775 21.422976,15.056566 22.927307,17.217670 
	C22.845936,25.807085 22.839678,33.915188 22.610435,42.249245 
	C20.610399,44.010468 18.833345,45.545738 17.056292,47.081009 
z"/>
<path fill="#014101" opacity="1.000000" stroke="none" 
	d="
M17.031620,47.269180 
	C18.833345,45.545738 20.610399,44.010468 23.092152,42.276382 
	C31.864378,42.116962 39.931904,42.156357 48.197746,42.441803 
	C49.933178,44.450932 51.470291,46.214012 52.538498,47.987808 
	C40.723770,48.016930 29.377951,48.035332 17.800293,47.949459 
	C17.399027,47.841179 17.229601,47.837173 17.060175,47.833172 
	C17.060175,47.833172 17.006950,47.457355 17.031620,47.269180 
z"/>
<path fill="#014101" opacity="1.000000" stroke="none" 
	d="
M18.032162,122.053734 
	C17.876596,121.985519 17.721029,121.917297 17.311239,121.845566 
	C17.057014,121.842049 17.005428,121.460876 17.347923,121.182449 
	C19.404739,119.277138 21.119061,117.650246 23.314507,116.050957 
	C31.879942,116.112198 39.964256,116.145836 48.235680,116.421028 
	C49.936737,118.374100 51.450691,120.085609 52.926487,121.911774 
	C52.888332,122.026413 53.004009,122.238586 52.543213,122.145859 
	C40.732334,122.053337 29.382248,122.053535 18.032162,122.053734 
z"/>
<path fill="#48A448" opacity="1.000000" stroke="none" 
	d="
M17.023312,48.316673 
	C17.229601,47.837173 17.399027,47.841179 17.927155,48.243439 
	C19.857685,50.340073 21.429512,52.038460 22.926456,54.217953 
	C22.845526,62.807133 22.839476,70.915207 22.610439,79.249237 
	C20.610350,81.010315 18.833244,82.545441 17.056141,84.080574 
	C17.032909,72.320442 17.009678,60.560307 17.023312,48.316673 
z"/>
<path fill="#48A448" opacity="1.000000" stroke="none" 
	d="
M22.833382,116.023354 
	C21.119061,117.650246 19.404739,119.277138 17.373039,120.991768 
	C17.032522,109.316193 17.009386,97.552864 17.276924,85.317970 
	C17.722454,84.915512 17.877308,84.984619 18.159229,85.347862 
	C19.846962,87.345238 21.407629,89.048477 22.901333,91.232285 
	C22.834042,99.816345 22.833712,107.919853 22.833382,116.023354 
z"/>
<path fill="#014101" opacity="1.000000" stroke="none" 
	d="
M18.032162,85.053741 
	C17.877308,84.984619 17.722454,84.915512 17.313826,84.840149 
	C17.060051,84.833908 17.004978,84.456421 17.030560,84.268494 
	C18.833244,82.545441 20.610350,81.010315 23.092155,79.276375 
	C31.880766,79.111526 39.964676,79.145493 48.238350,79.423981 
	C49.954472,81.438004 51.480835,83.207504 52.538197,84.987755 
	C40.723518,85.016914 29.377840,85.035324 18.032162,85.053741 
z"/>
<path fill="#014101" opacity="1.000000" stroke="none" 
	d="
M17.423752,158.357956 
	C18.855225,156.583969 20.621397,155.029526 23.092211,153.276306 
	C31.864389,153.116943 39.931927,153.156326 47.999466,153.195724 
	C49.280388,154.842224 50.561317,156.488724 51.963272,158.418610 
	C40.642353,158.660492 29.200403,158.618988 17.423752,158.357956 
z"/>
<path fill="#014101" opacity="1.000000" stroke="none" 
	d="
M158.998993,153.197495 
	C160.280563,154.843674 161.562134,156.489853 162.964905,158.419479 
	C152.028336,158.783554 140.970566,158.864197 129.443069,158.923004 
	C128.973358,158.901169 128.991379,158.533768 129.182693,158.080566 
	C130.861206,156.093292 132.348404,154.559235 134.316544,153.052887 
	C142.864670,153.119583 150.931824,153.158539 158.998993,153.197495 
z"/>
<path fill="#014101" opacity="1.000000" stroke="none" 
	d="
M92.443207,158.922775 
	C91.973419,158.901154 91.991394,158.533783 92.183762,158.079407 
	C93.860085,156.102203 95.344048,154.579391 97.306915,153.082458 
	C105.856941,153.138367 113.928055,153.168381 121.999176,153.198395 
	C123.280479,154.844513 124.561783,156.490631 125.964272,158.420166 
	C115.027962,158.783844 103.970482,158.864120 92.443207,158.922775 
z"/>
<path fill="#014101" opacity="1.000000" stroke="none" 
	d="
M55.443184,158.922775 
	C54.973400,158.901154 54.991394,158.533768 55.183754,158.079391 
	C56.860081,156.102188 58.344051,154.579376 60.306934,153.082428 
	C68.856956,153.138351 76.928062,153.168381 84.999176,153.198395 
	C86.280479,154.844513 87.561790,156.490631 88.964272,158.420166 
	C78.027954,158.783859 66.970467,158.864136 55.443184,158.922775 
z"/>
<path fill="#80C080" opacity="1.000000" stroke="none" 
	d="
M23.002419,16.736359 
	C21.422976,15.056566 19.843533,13.376775 18.109167,11.416655 
	C29.312778,11.102200 40.671314,11.068071 52.489037,11.120728 
	C52.948223,11.207512 52.926033,11.545457 52.724213,11.946894 
	C51.005062,13.839410 49.487732,15.330489 47.507484,16.745262 
	C39.030514,16.691423 31.016466,16.713892 23.002419,16.736359 
z"/>
<path fill="#80C080" opacity="1.000000" stroke="none" 
	d="
M89.489212,11.120744 
	C89.948227,11.207514 89.926033,11.545456 89.723808,11.947252 
	C88.010567,13.838222 86.499550,15.327393 84.525574,16.741632 
	C76.042213,16.690264 68.021820,16.713825 60.001423,16.737389 
	C58.422104,15.057296 56.842785,13.377203 55.108803,11.416601 
	C66.312828,11.102053 77.671516,11.068013 89.489212,11.120744 
z"/>
<path fill="#80C080" opacity="1.000000" stroke="none" 
	d="
M126.489212,11.120744 
	C126.948227,11.207514 126.926033,11.545456 126.723808,11.947251 
	C125.010559,13.838218 123.499542,15.327389 121.525574,16.741631 
	C113.042206,16.690269 105.021797,16.713837 97.001389,16.737404 
	C95.422081,15.057305 93.842773,13.377207 92.108795,11.416600 
	C103.312820,11.102053 114.671516,11.068013 126.489212,11.120744 
z"/>
<path fill="#80C080" opacity="1.000000" stroke="none" 
	d="
M134.001419,16.737389 
	C132.422104,15.057296 130.842789,13.377204 129.108810,11.416601 
	C140.385818,11.096645 151.817474,11.057201 163.739166,11.063581 
	C162.633057,12.868240 161.036942,14.627073 158.742554,16.527321 
	C150.029999,16.691622 142.015701,16.714506 134.001419,16.737389 
z"/>
<path fill="#008000" opacity="1.000000" stroke="none" 
	d="
M122.011230,152.711624 
	C113.928055,153.168381 105.856941,153.138367 97.277954,152.606934 
	C96.834923,143.988342 96.899757,135.871185 97.432877,127.699570 
	C105.931252,127.702477 113.961357,127.759827 121.991455,127.817184 
	C122.002068,135.953079 122.012680,144.088959 122.011230,152.711624 
z"/>
<path fill="#48A448" opacity="1.000000" stroke="none" 
	d="
M133.835587,153.025177 
	C132.348404,154.559235 130.861206,156.093292 129.187134,157.896698 
	C128.663147,156.289215 128.075394,154.418289 128.031021,152.534561 
	C127.803024,142.855774 127.714668,133.173706 127.242371,123.025208 
	C126.907181,122.557632 126.915367,122.222015 127.274422,122.141815 
	C128.106262,121.927979 128.579041,121.794327 129.072083,121.764496 
	C129.092361,121.868324 128.989273,122.053070 129.123322,122.345734 
	C130.827759,124.343002 132.398132,126.047607 133.901825,128.232773 
	C133.835266,136.817276 133.835434,144.921234 133.835587,153.025177 
z"/>
<path fill="#80C080" opacity="1.000000" stroke="none" 
	d="
M126.915367,122.222015 
	C126.915367,122.222015 126.907181,122.557632 126.935783,122.722778 
	C125.457657,124.387856 123.950928,125.887787 122.217827,127.602448 
	C113.961357,127.759827 105.931252,127.702477 97.223953,127.469193 
	C95.027664,125.546532 93.508568,123.799797 92.458466,122.033371 
	C104.285500,122.000641 115.643539,121.987610 126.932091,122.019737 
	C126.862602,122.064896 126.915367,122.222015 126.915367,122.222015 
z"/>
<path fill="#008000" opacity="1.000000" stroke="none" 
	d="
M85.011230,152.711624 
	C76.928062,153.168381 68.856956,153.138351 60.277962,152.606903 
	C59.834919,143.988342 59.899761,135.871170 60.432880,127.699570 
	C68.931259,127.702484 76.961357,127.759834 84.991455,127.817184 
	C85.002068,135.953079 85.012680,144.088959 85.011230,152.711624 
z"/>
<path fill="#48A448" opacity="1.000000" stroke="none" 
	d="
M91.989471,122.053062 
	C93.508568,123.799797 95.027664,125.546532 96.755676,127.523636 
	C96.899757,135.871185 96.834923,143.988342 96.799042,152.581039 
	C95.344048,154.579391 93.860085,156.102203 92.188179,157.895538 
	C91.663124,156.289246 91.075401,154.418304 91.031021,152.534576 
	C90.803017,142.855789 90.714676,133.173706 90.242371,123.025208 
	C89.907181,122.557632 89.915367,122.222015 90.274429,122.141823 
	C91.106262,121.927979 91.579033,121.794327 92.072113,121.764481 
	C92.092422,121.868279 91.989471,122.053062 91.989471,122.053062 
z"/>
<path fill="#80C080" opacity="1.000000" stroke="none" 
	d="
M89.915367,122.222015 
	C89.915367,122.222015 89.907181,122.557632 89.935776,122.722778 
	C88.457649,124.387848 86.950920,125.887779 85.217819,127.602448 
	C76.961357,127.759834 68.931259,127.702484 60.224304,127.469467 
	C58.022610,125.557594 56.497765,123.821388 55.034393,122.006729 
	C55.095863,121.928284 54.946735,121.797890 55.412437,121.879189 
	C67.252617,121.965179 78.627098,121.969872 89.932091,122.019730 
	C89.862602,122.064896 89.915367,122.222015 89.915367,122.222015 
z"/>
<path fill="#008000" opacity="1.000000" stroke="none" 
	d="
M48.011475,152.709198 
	C39.931927,153.156326 31.864389,153.116943 23.315138,153.050415 
	C22.833738,144.919800 22.834055,136.816330 23.369640,128.178619 
	C31.933764,127.701988 39.962616,127.759583 47.991470,127.817177 
	C48.002144,135.952347 48.012814,144.087509 48.011475,152.709198 
z"/>
<path fill="#48A448" opacity="1.000000" stroke="none" 
	d="
M54.972923,122.085175 
	C56.497765,123.821388 58.022610,125.557594 59.756027,127.523911 
	C59.899761,135.871170 59.834919,143.988342 59.799049,152.581024 
	C58.344051,154.579376 56.860081,156.102188 55.188179,157.895538 
	C54.663139,156.289200 54.075340,154.418243 54.031025,152.534485 
	C53.803310,142.855499 53.715282,133.173218 53.260174,123.026001 
	C52.941883,122.559914 53.004009,122.238586 53.004009,122.238586 
	C53.004009,122.238586 52.888332,122.026413 53.257484,121.985657 
	C54.075397,121.991669 54.524162,122.038422 54.972923,122.085175 
z"/>
<path fill="#80C080" opacity="1.000000" stroke="none" 
	d="
M52.543213,122.145859 
	C53.004009,122.238586 52.941883,122.559914 52.954300,122.722778 
	C51.459244,124.386307 49.951778,125.886971 48.217892,127.602402 
	C39.962616,127.759583 31.933764,127.701988 23.436604,127.698059 
	C21.407633,126.048477 19.846966,124.345230 18.159229,122.347862 
	C29.382248,122.053535 40.732334,122.053337 52.543213,122.145859 
z"/>
<path fill="#008000" opacity="1.000000" stroke="none" 
	d="
M134.316544,153.052887 
	C133.835434,144.921234 133.835266,136.817276 134.370087,128.178955 
	C142.932571,127.702202 150.960068,127.759834 158.987579,127.817474 
	C158.999359,135.952103 159.011154,144.086746 159.010956,152.709442 
	C150.931824,153.158539 142.864670,153.119583 134.316544,153.052887 
z"/>
<path fill="#80C080" opacity="1.000000" stroke="none" 
	d="
M159.219421,127.599579 
	C150.960068,127.759834 142.932571,127.702202 134.436798,127.698395 
	C132.398132,126.047607 130.827759,124.343002 129.592346,122.326035 
	C141.285446,122.000526 152.643570,121.987366 164.001709,121.974213 
	C164.001709,121.974205 163.978775,122.000946 163.997513,122.005753 
	C162.494583,123.800941 160.972916,125.591316 159.219421,127.599579 
z"/>
<path fill="#008000" opacity="1.000000" stroke="none" 
	d="
M158.987045,53.816200 
	C159.010452,61.950588 159.033844,70.084976 158.579575,78.693199 
	C150.010620,79.130219 141.919312,79.093391 133.799042,78.581039 
	C133.834946,69.988327 133.899811,61.871151 134.432953,53.699539 
	C142.929840,53.702133 150.958435,53.759167 158.987045,53.816200 
z"/>
<path fill="#014101" opacity="1.000000" stroke="none" 
	d="
M133.828018,79.056572 
	C141.919312,79.093391 150.010620,79.130219 158.576187,79.173073 
	C160.580200,80.932594 162.109940,82.686081 163.351746,84.718567 
	C151.689880,84.930794 140.315948,84.864029 128.965881,84.636368 
	C128.989746,84.475471 129.018097,84.151405 129.202148,83.883179 
	C130.866791,82.095497 132.347412,80.576035 133.828018,79.056572 
z"/>
<path fill="#80C080" opacity="1.000000" stroke="none" 
	d="
M128.942017,84.797256 
	C140.315948,84.864029 151.689880,84.930794 163.532135,84.986481 
	C164.069016,85.146942 164.137589,85.318481 164.202972,85.767105 
	C162.612717,87.492500 161.025665,88.940811 158.741730,90.529160 
	C150.018112,90.697456 141.991379,90.725716 133.756485,90.524231 
	C132.030609,88.557961 130.512894,86.821442 129.049011,85.000595 
	C129.102844,84.916267 128.942017,84.797256 128.942017,84.797256 
z"/>
<path fill="#80C080" opacity="1.000000" stroke="none" 
	d="
M159.218781,53.598297 
	C150.958435,53.759167 142.929840,53.702133 134.224762,53.469788 
	C132.032684,51.557667 130.517075,49.820869 129.056061,47.997849 
	C129.110657,47.911621 128.941620,47.797207 129.407730,47.878773 
	C141.249710,47.965221 152.625595,47.970100 164.001465,47.974983 
	C164.001465,47.974979 163.977905,48.000221 163.996048,48.005875 
	C162.492950,49.801147 160.971725,51.590771 159.218781,53.598297 
z"/>
<path fill="#008000" opacity="1.000000" stroke="none" 
	d="
M133.926849,17.218498 
	C142.015701,16.714506 150.029999,16.691622 158.507553,16.744740 
	C158.999908,24.954020 159.028992,33.087296 158.580261,41.694160 
	C150.010040,42.130299 141.917633,42.092842 133.825241,42.055389 
	C133.834244,33.936794 133.843246,25.818201 133.926849,17.218498 
z"/>
<path fill="#014101" opacity="1.000000" stroke="none" 
	d="
M133.604980,42.272781 
	C141.917633,42.092842 150.010040,42.130299 158.576782,42.174118 
	C160.580933,43.933567 162.110733,45.686649 163.821014,47.707359 
	C152.625595,47.970100 141.249710,47.965221 129.431717,47.717903 
	C128.989594,47.475468 129.018082,47.151417 129.018082,47.151413 
	C130.473618,45.597664 131.929153,44.043919 133.604980,42.272781 
z"/>
<path fill="#008000" opacity="1.000000" stroke="none" 
	d="
M133.964661,90.753983 
	C141.991379,90.725716 150.018112,90.697456 158.508087,90.745605 
	C159.000519,98.955276 159.029709,107.088531 158.580902,115.695145 
	C150.011292,116.131187 141.919647,116.093880 133.799042,115.581039 
	C133.834946,106.988327 133.899811,98.871155 133.964661,90.753983 
z"/>
<path fill="#014101" opacity="1.000000" stroke="none" 
	d="
M133.828018,116.056572 
	C141.919647,116.093880 150.011292,116.131187 158.577332,116.175186 
	C160.581253,117.934380 162.110764,119.686890 163.820984,121.706810 
	C152.643570,121.987366 141.285446,122.000526 129.458282,122.033379 
	C128.989273,122.053070 129.092361,121.868324 129.062363,121.640739 
	C129.032364,121.413155 129.000259,121.166054 129.188187,120.895538 
	C130.860092,119.102203 132.344055,117.579384 133.828018,116.056572 
z"/>
<path fill="#008000" opacity="1.000000" stroke="none" 
	d="
M59.926842,17.218498 
	C68.021820,16.713825 76.042213,16.690264 84.536171,17.222700 
	C85.023483,25.912830 85.037239,34.046963 84.579178,42.182983 
	C76.013168,42.142017 67.918976,42.099159 59.824787,42.056301 
	C59.833946,33.937405 59.843102,25.818506 59.926842,17.218498 
z"/>
<path fill="#015C01" opacity="1.000000" stroke="none" 
	d="
M47.970406,16.821568 
	C49.487732,15.330489 51.005062,13.839410 52.746986,12.114691 
	C53.309902,13.754305 53.899780,15.621600 53.944298,17.501810 
	C54.173462,27.179600 54.262623,36.860706 54.703564,46.972313 
	C55.006470,47.403965 54.982830,47.642952 54.641342,47.737988 
	C53.845726,47.966606 53.391594,48.100185 52.910557,48.157501 
	C52.883652,48.081238 53.007404,47.977093 53.007404,47.977093 
	C51.470291,46.214012 49.933178,44.450932 48.209747,41.953911 
	C48.005753,33.087173 47.988079,24.954370 47.970406,16.821568 
z"/>
<path fill="#014101" opacity="1.000000" stroke="none" 
	d="
M54.982830,47.642952 
	C54.982830,47.642952 55.006470,47.403965 55.004364,47.284344 
	C56.463676,45.605820 57.925091,44.046917 59.605648,42.272160 
	C67.918976,42.099159 76.013168,42.142017 84.768044,42.426338 
	C86.955421,44.437473 88.482117,46.207142 89.539780,47.987328 
	C77.714233,48.016197 66.357712,48.034557 55.029015,47.948975 
	C55.056843,47.845032 54.982830,47.642952 54.982830,47.642952 
z"/>
<path fill="#008000" opacity="1.000000" stroke="none" 
	d="
M96.926819,17.218513 
	C105.021797,16.713837 113.042206,16.690269 121.536163,17.222702 
	C122.023468,25.912836 122.037216,34.046974 121.579147,42.182999 
	C113.013153,42.142025 104.918968,42.099163 96.824783,42.056297 
	C96.833939,33.937405 96.843086,25.818516 96.926819,17.218513 
z"/>
<path fill="#015C01" opacity="1.000000" stroke="none" 
	d="
M90.008820,47.976814 
	C88.482117,46.207142 86.955421,44.437473 85.239861,42.424446 
	C85.037239,34.046963 85.023483,25.912830 84.999130,17.297632 
	C86.499550,15.327393 88.010567,13.838222 89.746582,12.115048 
	C90.309906,13.754279 90.899719,15.621547 90.944313,17.501743 
	C91.173828,27.179323 91.263397,36.860226 91.716026,46.973846 
	C92.030228,47.407722 92.029495,47.655281 91.675323,47.747738 
	C90.848999,47.965973 90.376839,48.091755 89.879669,48.135269 
	C89.854660,48.053005 90.008820,47.976810 90.008820,47.976814 
z"/>
<path fill="#014101" opacity="1.000000" stroke="none" 
	d="
M92.029495,47.655281 
	C92.029495,47.655281 92.030228,47.407722 92.017700,47.284966 
	C93.465637,45.604115 94.926109,44.046024 96.605682,42.272118 
	C104.918968,42.099163 113.013153,42.142025 121.766098,42.424221 
	C123.956482,44.377644 125.488113,46.091728 126.969452,47.912125 
	C126.919174,48.018433 127.003983,48.237812 126.543198,48.145054 
	C114.722000,48.052502 103.361588,48.052711 92.044708,47.956108 
	C92.088257,47.859295 92.029495,47.655281 92.029495,47.655281 
z"/>
<path fill="#015C01" opacity="1.000000" stroke="none" 
	d="
M127.019737,47.805817 
	C125.488113,46.091728 123.956482,44.377644 122.237915,42.422333 
	C122.037216,34.046974 122.023468,25.912836 121.999123,17.297630 
	C123.499542,15.327389 125.010559,13.838218 126.746582,12.115047 
	C127.309952,13.782251 127.898621,15.677435 127.944511,17.585674 
	C128.176590,27.233683 128.267456,36.885086 128.712967,46.843361 
	C129.018082,47.151417 128.989594,47.475468 128.965607,47.636337 
	C128.941620,47.797207 129.110657,47.911621 128.729462,47.924080 
	C127.905411,47.892960 127.462578,47.849388 127.019737,47.805817 
z"/>
<path fill="#008000" opacity="1.000000" stroke="none" 
	d="
M47.507484,16.745262 
	C47.988079,24.954370 48.005753,33.087173 48.011429,41.707863 
	C39.931904,42.156357 31.864378,42.116962 23.315136,42.050430 
	C22.839678,33.915188 22.845936,25.807085 22.927307,17.217670 
	C31.016466,16.713892 39.030514,16.691423 47.507484,16.745262 
z"/>
<path fill="#80C080" opacity="1.000000" stroke="none" 
	d="
M23.001339,53.736847 
	C21.429512,52.038460 19.857685,50.340073 18.158995,48.347710 
	C29.377951,48.035332 40.723770,48.016930 52.538498,47.987808 
	C53.007404,47.977093 52.883652,48.081238 52.899414,48.320923 
	C52.915173,48.560608 52.968861,48.884373 52.745216,49.116913 
	C51.010559,50.838490 49.499554,52.327526 47.525589,53.741631 
	C39.042202,53.690083 31.021770,53.713463 23.001339,53.736847 
z"/>
<path fill="#008000" opacity="1.000000" stroke="none" 
	d="
M23.314505,116.050957 
	C22.833712,107.919853 22.834042,99.816345 23.369640,91.178619 
	C31.933764,90.701981 39.962616,90.759575 48.005089,91.297142 
	C48.028660,99.911232 48.038612,108.045349 48.048569,116.179474 
	C39.964256,116.145836 31.879942,116.112198 23.314505,116.050957 
z"/>
<path fill="#015C01" opacity="1.000000" stroke="none" 
	d="
M48.235680,116.421028 
	C48.038612,108.045349 48.028660,99.911232 48.232117,91.082001 
	C49.953304,88.886055 51.461082,87.385216 53.273727,86.188904 
	C53.715370,96.174202 53.803352,105.856110 54.031033,115.534744 
	C54.075348,117.418411 54.663143,119.289284 54.991135,121.324387 
	C54.982010,121.482704 54.946735,121.797890 54.946735,121.797890 
	C54.946735,121.797890 55.095863,121.928284 55.034393,122.006729 
	C54.524162,122.038422 54.075397,121.991669 53.295639,121.871017 
	C51.450691,120.085609 49.936737,118.374100 48.235680,116.421028 
z"/>
<path fill="#008000" opacity="1.000000" stroke="none" 
	d="
M22.926456,54.217957 
	C31.021770,53.713463 39.042202,53.690083 47.536186,54.222702 
	C48.022690,62.912289 48.035641,71.045876 48.048588,79.179466 
	C39.964676,79.145493 31.880766,79.111526 23.315140,79.050415 
	C22.839476,70.915207 22.845526,62.807133 22.926456,54.217957 
z"/>
<path fill="#80C080" opacity="1.000000" stroke="none" 
	d="
M52.968861,85.884369 
	C51.461082,87.385216 49.953304,88.886055 48.218498,90.602036 
	C39.962616,90.759575 31.933764,90.701981 23.436604,90.698059 
	C21.407629,89.048477 19.846962,87.345238 18.159229,85.347870 
	C29.377840,85.035324 40.723518,85.016914 52.476364,85.039856 
	C52.883533,85.081207 52.937378,85.233719 52.926262,85.397148 
	C52.915142,85.560577 52.968861,85.884369 52.968861,85.884369 
z"/>
<path fill="#015C01" opacity="1.000000" stroke="none" 
	d="
M48.238350,79.423981 
	C48.035641,71.045876 48.022690,62.912289 47.999146,54.297630 
	C49.499554,52.327526 51.010559,50.838490 53.050083,49.421444 
	C53.715366,59.174366 53.803104,68.856453 54.031258,78.535233 
	C54.075626,80.417381 54.666630,82.286644 55.012199,84.283592 
	C55.018909,84.405334 54.999191,84.648392 54.653473,84.740402 
	C53.850964,84.966179 53.394169,85.099953 52.937378,85.233719 
	C52.937378,85.233719 52.883533,85.081207 52.945366,85.029106 
	C51.480835,83.207504 49.954472,81.438004 48.238350,79.423981 
z"/>
<path fill="#015C01" opacity="1.000000" stroke="none" 
	d="
M129.000259,121.166054 
	C129.000259,121.166054 129.032364,121.413155 129.042084,121.536911 
	C128.579041,121.794327 128.106262,121.927979 127.274422,122.141815 
	C126.915367,122.222015 126.862602,122.064896 126.752632,121.753532 
	C125.094833,119.694244 123.547005,117.946320 122.011238,115.711624 
	C122.011536,107.089264 121.999771,98.953674 122.215164,90.603226 
	C123.949745,88.888161 125.457161,87.387955 127.271103,86.190254 
	C127.714722,96.173691 127.803047,105.855774 128.031021,115.534569 
	C128.075394,117.418297 128.663147,119.289223 129.000259,121.166054 
z"/>
<path fill="#014101" opacity="1.000000" stroke="none" 
	d="
M121.999176,116.198395 
	C123.547005,117.946320 125.094833,119.694244 126.822121,121.708374 
	C115.643539,121.987610 104.285500,122.000641 92.458466,122.033371 
	C91.989471,122.053062 92.092422,121.868279 92.062386,121.640717 
	C92.032349,121.413162 92.000237,121.166069 92.188171,120.895538 
	C93.860077,119.102188 95.344040,117.579376 97.306915,116.082443 
	C105.856941,116.138351 113.928062,116.168373 121.999176,116.198395 
z"/>
<path fill="#015C01" opacity="1.000000" stroke="none" 
	d="
M92.000237,121.166069 
	C92.000237,121.166069 92.032349,121.413162 92.042084,121.536926 
	C91.579033,121.794327 91.106262,121.927979 90.274429,122.141823 
	C89.915367,122.222015 89.862602,122.064896 89.752632,121.753532 
	C88.094826,119.694244 86.546982,117.946320 85.011200,115.710258 
	C85.011505,107.087440 84.999748,98.952766 85.215210,90.603188 
	C86.950516,88.887405 88.458618,87.386520 90.272591,86.188858 
	C90.715279,96.173218 90.803307,105.855492 91.031029,115.534485 
	C91.075340,117.418236 91.663132,119.289207 92.000237,121.166069 
z"/>
<path fill="#014101" opacity="1.000000" stroke="none" 
	d="
M84.999146,116.198395 
	C86.546982,117.946320 88.094826,119.694244 89.822121,121.708374 
	C78.627098,121.969872 67.252617,121.965179 55.412437,121.879189 
	C54.946735,121.797890 54.982010,121.482704 55.178009,121.055031 
	C56.861198,119.093292 58.348389,117.559235 60.316547,116.052879 
	C68.864723,116.119858 76.931938,116.159126 84.999146,116.198395 
z"/>
<path fill="#48A448" opacity="1.000000" stroke="none" 
	d="
M126.969452,47.912125 
	C127.462578,47.849388 127.905411,47.892960 128.674850,48.010303 
	C130.517075,49.820869 132.032684,51.557667 133.756485,53.524223 
	C133.899811,61.871151 133.834946,69.988327 133.799042,78.581039 
	C132.347412,80.576035 130.866791,82.095497 128.897034,83.575119 
	C128.267471,73.885147 128.176804,64.233810 127.944290,54.585892 
	C127.898346,52.679062 127.306702,50.785385 126.954330,48.722588 
	C126.941956,48.559532 127.003983,48.237812 127.003983,48.237812 
	C127.003983,48.237812 126.919174,48.018433 126.969452,47.912125 
z"/>
<path fill="#015C01" opacity="1.000000" stroke="none" 
	d="
M126.966721,48.885639 
	C127.306702,50.785385 127.898346,52.679062 127.944290,54.585892 
	C128.176804,64.233810 128.267471,73.885147 128.712982,83.843346 
	C129.018097,84.151405 128.989746,84.475471 128.965881,84.636368 
	C128.942017,84.797256 129.102844,84.916267 128.707153,84.963051 
	C127.857117,85.086098 127.402763,85.162369 126.915863,85.163017 
	C126.883324,85.087395 127.001579,84.974571 126.820969,84.707077 
	C125.110748,82.686821 123.581139,80.934067 122.055054,78.701309 
	C122.029442,70.087990 122.000298,61.954685 122.202171,53.606544 
	C123.944374,51.889687 125.455544,50.387665 126.966721,48.885639 
z"/>
<path fill="#48A448" opacity="1.000000" stroke="none" 
	d="
M126.948402,85.238640 
	C127.402763,85.162369 127.857117,85.086098 128.653336,85.047379 
	C130.512894,86.821442 132.030609,88.557961 133.756485,90.524231 
	C133.899811,98.871155 133.834946,106.988327 133.799042,115.581039 
	C132.344055,117.579384 130.860092,119.102203 129.188187,120.895538 
	C128.663147,119.289223 128.075394,117.418297 128.031021,115.534569 
	C127.803047,105.855774 127.714722,96.173691 127.247261,86.028595 
	C126.916893,85.564445 126.948402,85.238640 126.948402,85.238640 
z"/>
<path fill="#48A448" opacity="1.000000" stroke="none" 
	d="
M55.005493,84.161850 
	C54.666630,82.286644 54.075626,80.417381 54.031258,78.535233 
	C53.803104,68.856453 53.715366,59.174366 53.273727,49.188904 
	C52.968861,48.884373 52.915173,48.560608 52.926315,48.397186 
	C53.391594,48.100185 53.845726,47.966606 54.641342,47.737988 
	C54.982830,47.642952 55.056843,47.845032 55.160679,48.241951 
	C56.843845,50.338219 58.423172,52.037563 59.927689,54.218224 
	C59.847122,62.808060 59.841370,70.916580 59.613972,79.249397 
	C57.930046,81.036407 56.467770,82.599129 55.005493,84.161850 
z"/>
<path fill="#80C080" opacity="1.000000" stroke="none" 
	d="
M60.002502,53.736912 
	C58.423172,52.037563 56.843845,50.338219 55.132851,48.345894 
	C66.357712,48.034557 77.714233,48.016197 89.539787,47.987324 
	C90.008820,47.976810 89.854660,48.053005 89.882401,48.302376 
	C89.910133,48.551743 89.971588,48.881050 89.746582,49.115051 
	C88.010559,50.838219 86.499542,52.327393 84.525558,53.741631 
	C76.042572,53.690105 68.022537,53.713509 60.002502,53.736912 
z"/>
<path fill="#48A448" opacity="1.000000" stroke="none" 
	d="
M89.971588,48.881050 
	C89.971588,48.881050 89.910133,48.551743 89.907410,48.384636 
	C90.376839,48.091755 90.848999,47.965973 91.675323,47.747738 
	C92.029495,47.655281 92.088257,47.859295 92.176376,48.249077 
	C93.843460,50.338375 95.422424,52.037891 96.926819,54.218517 
	C96.843239,62.818218 96.834229,70.936813 96.605042,79.272690 
	C94.930550,81.042648 93.476234,82.595329 91.715630,83.841248 
	C91.268448,73.884514 91.177055,64.233360 90.944527,54.585594 
	C90.898544,52.677372 90.309952,50.782227 89.971588,48.881050 
z"/>
<path fill="#80C080" opacity="1.000000" stroke="none" 
	d="
M97.001389,53.737408 
	C95.422424,52.037891 93.843460,50.338375 92.132828,48.345886 
	C103.361588,48.052711 114.722000,48.052502 126.543198,48.145054 
	C127.003983,48.237812 126.941956,48.559532 126.954338,48.722588 
	C125.455544,50.387665 123.944374,51.889687 121.738899,53.530334 
	C113.030197,53.691780 105.015793,53.714592 97.001389,53.737408 
z"/>
<path fill="#48A448" opacity="1.000000" stroke="none" 
	d="
M59.835579,116.025169 
	C58.348389,117.559235 56.861198,119.093292 55.187134,120.896713 
	C54.663143,119.289284 54.075348,117.418411 54.031033,115.534744 
	C53.803352,105.856110 53.715370,96.174202 53.273727,86.188904 
	C52.968861,85.884369 52.915142,85.560577 52.926262,85.397148 
	C53.394169,85.099953 53.850964,84.966179 54.687931,84.841591 
	C55.068108,84.850769 55.001205,85.052917 55.133072,85.346039 
	C56.832790,87.343521 58.400642,89.047874 59.901802,91.232788 
	C59.835266,99.817291 59.835423,107.921227 59.835579,116.025169 
z"/>
<path fill="#014101" opacity="1.000000" stroke="none" 
	d="
M55.012199,84.283592 
	C56.467770,82.599129 57.930046,81.036407 60.095531,79.276642 
	C68.882111,79.113693 76.965477,79.147804 85.235924,79.423241 
	C86.938690,81.375153 88.454384,83.085732 89.931168,84.910324 
	C89.892265,85.024338 90.003983,85.237808 89.543198,85.145050 
	C77.722015,85.052498 66.361610,85.052704 55.001205,85.052917 
	C55.001205,85.052917 55.068108,84.850769 55.033649,84.749580 
	C54.999191,84.648392 55.018909,84.405334 55.012199,84.283592 
z"/>
<path fill="#008000" opacity="1.000000" stroke="none" 
	d="
M122.011238,115.711624 
	C113.928062,116.168373 105.856941,116.138351 97.277954,115.606918 
	C96.834923,106.988335 96.899757,98.871178 97.432877,90.699570 
	C105.930099,90.702782 113.959053,90.760437 121.988007,90.818085 
	C121.999771,98.953674 122.011536,107.089264 122.011238,115.711624 
z"/>
<path fill="#80C080" opacity="1.000000" stroke="none" 
	d="
M122.215164,90.603226 
	C113.959053,90.760437 105.930099,90.702782 97.223969,90.469208 
	C95.028252,88.546547 93.509727,86.799789 92.460091,85.033356 
	C104.286514,85.000641 115.644051,84.987610 127.001579,84.974571 
	C127.001579,84.974571 126.883324,85.087395 126.915863,85.163017 
	C126.948402,85.238640 126.916893,85.564445 126.940735,85.726105 
	C125.457161,87.387955 123.949745,88.888161 122.215164,90.603226 
z"/>
<path fill="#48A448" opacity="1.000000" stroke="none" 
	d="
M91.991196,85.053040 
	C93.509727,86.799789 95.028252,88.546547 96.755692,90.523651 
	C96.899757,98.871178 96.834923,106.988335 96.799042,115.581024 
	C95.344040,117.579376 93.860077,119.102188 92.188171,120.895538 
	C91.663132,119.289207 91.075340,117.418236 91.031029,115.534485 
	C90.803307,105.855492 90.715279,96.173218 90.260208,86.025803 
	C89.941963,85.559525 90.003983,85.237808 90.003983,85.237808 
	C90.003983,85.237808 89.892265,85.024338 90.271355,84.949432 
	C91.102577,84.799194 91.554718,84.723869 92.034973,84.750908 
	C92.063103,84.853271 91.991196,85.053040 91.991196,85.053040 
z"/>
<path fill="#008000" opacity="1.000000" stroke="none" 
	d="
M60.316547,116.052879 
	C59.835423,107.921227 59.835266,99.817291 60.370079,91.178955 
	C68.932701,90.702400 76.960350,90.760246 84.987999,90.818085 
	C84.999748,98.952766 85.011505,107.087440 85.011200,115.710251 
	C76.931938,116.159126 68.864723,116.119858 60.316547,116.052879 
z"/>
<path fill="#80C080" opacity="1.000000" stroke="none" 
	d="
M85.215210,90.603188 
	C76.960350,90.760246 68.932701,90.702400 60.436771,90.698395 
	C58.400642,89.047874 56.832790,87.343521 55.133072,85.346039 
	C66.361610,85.052704 77.722015,85.052498 89.543198,85.145050 
	C90.003983,85.237808 89.941963,85.559525 89.954346,85.722580 
	C88.458618,87.386520 86.950516,88.887405 85.215210,90.603188 
z"/>
<path fill="#008000" opacity="1.000000" stroke="none" 
	d="
M96.926819,54.218517 
	C105.015793,53.714592 113.030197,53.691780 121.507874,53.745171 
	C122.000298,61.954685 122.029442,70.087990 121.580673,78.694748 
	C113.010239,79.130600 104.917732,79.093002 96.825218,79.055405 
	C96.834229,70.936813 96.843239,62.818218 96.926819,54.218517 
z"/>
<path fill="#014101" opacity="1.000000" stroke="none" 
	d="
M96.605042,79.272690 
	C104.917732,79.093002 113.010239,79.130600 121.577141,79.174759 
	C123.581139,80.934067 125.110748,82.686821 126.820969,84.707077 
	C115.644051,84.987610 104.286514,85.000641 92.460091,85.033356 
	C91.991196,85.053040 92.063103,84.853271 92.047165,84.626099 
	C92.031227,84.398926 92.021912,84.148003 92.021912,84.148010 
	C93.476234,82.595329 94.930550,81.042648 96.605042,79.272690 
z"/>
<path fill="#008000" opacity="1.000000" stroke="none" 
	d="
M85.048851,79.181915 
	C76.965477,79.147804 68.882111,79.113693 60.317177,79.052345 
	C59.841370,70.916580 59.847122,62.808060 59.927689,54.218224 
	C68.022537,53.713509 76.042572,53.690105 84.536163,54.222702 
	C85.022766,62.913105 85.035812,71.047508 85.048851,79.181915 
z"/>
<path fill="#015C01" opacity="1.000000" stroke="none" 
	d="
M85.235924,79.423241 
	C85.035812,71.047508 85.022766,62.913105 84.999123,54.297630 
	C86.499542,52.327393 88.010559,50.838219 89.746582,49.115051 
	C90.309952,50.782227 90.898544,52.677372 90.944527,54.585594 
	C91.177055,64.233360 91.268448,73.884514 91.715622,83.841248 
	C92.021912,84.148003 92.031227,84.398926 92.019043,84.523735 
	C91.554718,84.723869 91.102577,84.799194 90.310257,84.835419 
	C88.454384,83.085732 86.938690,81.375153 85.235924,79.423241 
z"/>
</svg>